<?xml version="1.0" standalone="no"?>
<!DOCTYPE svg PUBLIC "-//W3C//DTD SVG 20010904//EN"
 "http://www.w3.org/TR/2001/REC-SVG-20010904/DTD/svg10.dtd">
<svg version="1.0" xmlns="http://www.w3.org/2000/svg"
 width="520.000000pt" height="520.000000pt" viewBox="0 0 520.000000 520.000000"
 preserveAspectRatio="xMidYMid meet">
<metadata>
Created by potrace 1.14, written by Peter Selinger 2001-2017
</metadata>
<g transform="translate(0.000000,520.000000) scale(0.100000,-0.100000)"
fill="#000000" stroke="none">
<path d="M1303 4240 c-12 -5 -34 -30 -49 -57 -15 -26 -42 -71 -61 -98 -18 -28
-33 -56 -33 -63 0 -6 -4 -12 -9 -12 -4 0 -24 -21 -44 -47 -20 -27 -51 -68 -69
-92 -18 -24 -39 -48 -46 -55 -75 -67 -161 -159 -164 -174 -2 -11 4 -31 12 -47
13 -24 19 -26 52 -22 31 4 52 20 125 96 123 126 136 141 161 183 13 20 27 38
32 40 14 5 56 67 85 124 14 29 32 57 40 64 14 11 20 8 100 -53 5 -4 28 -21 50
-38 22 -16 47 -35 55 -42 14 -11 46 -35 95 -72 11 -9 58 -43 105 -77 47 -33
87 -65 88 -70 2 -4 10 -8 17 -8 7 0 15 -7 19 -15 3 -8 12 -15 21 -15 8 0 15
-5 15 -10 0 -6 16 -18 35 -27 19 -9 35 -20 35 -25 0 -4 19 -20 43 -35 23 -15
44 -30 47 -33 5 -5 67 -52 151 -112 52 -38 91 -41 109 -7 28 51 -7 92 -189
219 -28 19 -50 38 -51 43 0 4 -6 7 -13 7 -7 0 -19 9 -27 20 -8 11 -18 20 -22
20 -10 0 -382 281 -386 292 -2 4 -8 8 -13 8 -10 0 -26 12 -57 41 -9 9 -32 24
-49 33 -18 9 -33 21 -33 26 0 5 -8 11 -18 14 -10 4 -27 14 -38 24 -39 35 -77
62 -88 61 -6 0 -21 -4 -33 -9z"/>
<path d="M3205 4155 c-42 -37 -152 -137 -195 -177 -14 -12 -66 -54 -115 -92
-50 -39 -94 -76 -98 -83 -4 -7 -12 -13 -18 -13 -5 0 -41 -24 -80 -52 -39 -29
-90 -67 -113 -83 -27 -21 -42 -40 -44 -57 -5 -39 14 -68 43 -68 29 0 115 38
115 51 0 5 33 31 73 58 83 56 143 102 172 131 12 11 25 20 31 20 5 0 17 8 26
18 27 29 65 62 72 62 4 0 24 17 45 38 21 20 64 60 95 87 117 102 131 126 102
170 -24 36 -62 33 -111 -10z"/>
<path d="M3080 3776 c-35 -12 -77 -38 -160 -98 -67 -48 -81 -61 -212 -191
-144 -143 -158 -178 -80 -205 40 -14 43 -12 233 187 29 30 79 71 87 71 4 0 14
9 22 20 8 11 19 20 25 20 5 0 24 13 40 28 61 57 143 67 147 19 1 -22 0 -42 -5
-64 -4 -17 -100 -162 -129 -196 -13 -15 -27 -24 -31 -21 -12 12 -8 37 9 55 8
9 18 31 20 47 4 24 -1 34 -22 51 l-27 21 -39 -22 c-59 -34 -73 -71 -58 -160 7
-40 22 -88 34 -106 20 -31 24 -32 75 -30 50 3 56 6 112 62 32 33 59 63 59 67
0 4 6 14 13 21 18 19 77 113 77 124 1 5 9 26 19 47 26 55 21 141 -10 190 -13
20 -30 37 -36 37 -7 0 -13 4 -13 9 0 26 -96 37 -150 17z"/>
<path d="M1515 3636 c-23 -23 -31 -44 -26 -70 1 -5 5 -55 8 -110 3 -56 9 -106
14 -112 5 -6 6 -14 3 -17 -7 -7 45 -118 59 -128 5 -3 8 -9 8 -13 -1 -3 -1 -10
-1 -16 0 -15 126 -138 160 -155 17 -9 30 -19 30 -23 0 -7 50 -35 80 -45 9 -2
31 3 50 12 l35 16 0 70 c0 68 -22 132 -67 199 -71 105 -168 117 -168 21 0 -27
20 -55 39 -55 6 0 11 -6 11 -13 0 -7 9 -23 20 -35 12 -12 17 -22 12 -22 -19 0
-111 110 -122 147 -7 21 -16 43 -21 49 -5 6 -12 45 -17 87 l-8 77 25 -17 c14
-9 35 -22 46 -28 27 -14 79 -48 85 -55 3 -4 46 -32 95 -64 50 -32 106 -73 126
-91 20 -18 51 -36 69 -40 28 -6 36 -3 51 16 10 13 19 30 19 37 0 20 -52 89
-75 100 -11 5 -54 35 -95 66 -41 31 -78 56 -82 56 -5 0 -30 16 -57 35 -26 19
-52 35 -57 35 -4 0 -17 8 -28 19 -12 10 -41 29 -66 42 -25 13 -47 27 -50 31
-3 4 -22 10 -43 13 -30 5 -41 2 -62 -19z"/>
<path d="M66 3425 c-24 -24 -34 -47 -30 -70 2 -11 5 -34 8 -51 3 -17 12 -62
21 -100 9 -38 18 -81 19 -96 2 -14 8 -32 12 -40 5 -7 9 -17 10 -23 17 -94 76
-232 183 -430 74 -138 145 -224 218 -266 51 -29 55 -30 78 -15 40 26 46 48 25
84 -11 18 -27 32 -35 32 -20 0 -90 69 -99 98 -4 12 -12 22 -17 22 -5 0 -9 5
-9 11 0 6 -13 29 -28 52 -73 108 -206 431 -227 550 l-6 39 53 -29 c29 -15 55
-31 58 -35 4 -5 34 -19 155 -74 28 -12 177 -55 235 -67 14 -3 36 -8 50 -11 76
-18 229 -22 285 -8 25 7 30 14 33 43 5 56 -17 68 -136 74 -160 7 -272 25 -317
48 -11 6 -28 12 -38 14 -10 2 -32 11 -50 20 -18 9 -41 18 -52 18 -33 2 -201
105 -306 186 -47 37 -73 43 -93 24z"/>
<path d="M3187 3214 c-2 -2 -21 -6 -43 -9 -21 -2 -50 -7 -64 -10 -14 -3 -41
-7 -60 -9 -68 -8 -176 -27 -240 -42 -36 -8 -80 -17 -99 -20 -19 -3 -46 -10
-60 -16 -14 -6 -40 -12 -57 -14 -18 -1 -54 -9 -80 -17 -143 -42 -203 -59 -244
-68 -25 -5 -53 -14 -62 -19 -10 -6 -26 -10 -37 -10 -10 0 -34 -7 -53 -15 -20
-8 -47 -16 -61 -19 -55 -10 -82 -30 -85 -62 -2 -25 3 -37 24 -53 29 -22 54
-27 69 -12 6 6 22 12 36 15 15 2 51 11 80 20 78 22 258 75 299 86 41 12 155
37 222 50 27 5 52 11 57 14 5 4 56 15 113 27 182 37 206 40 375 58 71 7 385 5
433 -3 92 -15 205 -37 260 -51 94 -24 249 -76 256 -86 3 -5 13 -9 23 -9 21 0
306 -143 327 -165 9 -8 20 -15 25 -15 5 0 22 -11 37 -25 15 -14 31 -25 37 -25
6 0 22 -11 37 -25 15 -14 31 -25 35 -25 4 0 33 -23 63 -52 191 -179 210 -198
194 -198 -9 0 -61 14 -115 30 -54 17 -101 29 -106 28 -4 -1 -17 3 -28 9 -19
10 -60 19 -132 28 -18 2 -42 7 -54 10 -22 7 -36 9 -179 22 -152 15 -625 7
-790 -13 -67 -8 -127 -14 -205 -18 -38 -3 -86 -8 -105 -11 -19 -4 -53 -9 -75
-11 -95 -8 -224 -25 -268 -34 -26 -5 -63 -10 -81 -10 -18 0 -36 -3 -40 -7 -4
-4 -17 -8 -29 -9 -65 -4 -156 -16 -182 -24 -16 -5 -48 -12 -70 -14 -22 -2 -51
-7 -65 -10 -14 -4 -47 -9 -75 -12 -73 -7 -95 -11 -145 -23 -25 -7 -56 -14 -69
-17 -13 -3 -34 -10 -45 -16 -12 -6 -22 -11 -23 -10 -12 8 -35 -3 -63 -27 -30
-25 -32 -32 -26 -65 9 -45 25 -53 79 -36 23 8 44 14 47 15 3 0 21 6 40 13 19
6 46 13 60 16 14 3 50 10 80 16 30 6 71 13 90 16 19 2 76 11 125 20 50 9 101
17 115 19 92 11 137 17 150 20 23 7 160 27 205 30 22 2 60 6 85 10 25 4 56 8
70 10 14 2 45 7 70 10 47 7 67 9 185 19 39 4 95 9 125 12 333 33 792 35 925 5
22 -5 65 -12 95 -15 73 -8 153 -27 240 -56 19 -7 55 -16 80 -21 45 -9 51 -11
80 -22 8 -3 33 -9 55 -13 22 -4 47 -9 55 -11 40 -9 97 -10 117 -2 31 11 33 77
3 104 -11 10 -20 22 -20 28 0 5 -10 21 -22 35 -42 48 -245 247 -277 272 -18
14 -49 39 -69 57 -21 18 -53 40 -72 50 -19 10 -37 20 -40 23 -3 3 -21 17 -40
30 -19 13 -37 27 -40 30 -18 19 -301 160 -335 166 -12 2 -36 11 -51 19 -16 8
-36 15 -44 15 -9 0 -21 5 -27 11 -6 6 -26 13 -44 16 -19 3 -38 8 -44 13 -13
10 -199 52 -248 56 -20 2 -43 6 -49 10 -6 4 -28 9 -47 12 -42 5 -489 11 -494
6z"/>
<path d="M983 2464 c-13 -9 -23 -26 -23 -38 0 -26 36 -96 58 -113 9 -7 12 -13
8 -13 -4 0 7 -20 25 -45 18 -25 36 -45 41 -45 4 0 8 -5 8 -12 0 -20 175 -198
298 -301 39 -34 72 -65 72 -69 0 -4 4 -8 9 -8 5 0 26 -16 47 -35 21 -19 41
-35 45 -35 4 0 26 -17 48 -37 58 -55 69 -63 80 -63 5 0 31 -18 56 -40 25 -22
54 -40 63 -40 14 -1 14 -2 -3 -12 -39 -22 -57 -51 -51 -82 4 -17 12 -34 19
-38 20 -14 72 -2 112 25 21 14 43 23 49 19 6 -3 35 -23 65 -44 30 -21 58 -38
63 -38 5 0 30 -15 56 -32 26 -18 72 -46 102 -62 30 -16 82 -45 115 -63 33 -18
85 -46 115 -62 30 -15 69 -36 85 -44 17 -9 47 -39 68 -66 63 -83 129 -113 189
-88 27 11 39 11 63 1 17 -6 33 -10 38 -7 4 2 7 0 7 -5 0 -6 12 -13 28 -17 15
-3 54 -19 87 -35 102 -48 155 -69 155 -62 0 4 4 2 8 -4 6 -9 34 -21 217 -88
33 -13 77 -30 99 -39 21 -9 47 -17 57 -17 10 0 21 -5 24 -10 3 -6 15 -10 26
-10 10 0 36 -9 56 -20 21 -11 48 -20 60 -20 12 0 24 -4 28 -9 3 -5 19 -12 35
-16 17 -4 43 -13 58 -21 16 -7 37 -15 48 -17 10 -2 41 -14 67 -25 27 -12 55
-22 63 -22 8 0 42 -11 76 -25 74 -30 119 -32 142 -6 16 18 20 68 6 81 -3 3
-19 33 -35 68 -16 34 -33 62 -37 62 -4 0 -8 5 -8 11 0 9 -60 92 -108 148 -40
47 -115 148 -134 180 -12 20 -37 55 -55 79 -19 23 -32 42 -29 42 3 0 -8 26
-26 58 -17 31 -41 76 -54 100 -39 73 -133 338 -140 396 -14 106 -110 132 -131
36 -2 -8 -6 -24 -8 -35 -2 -11 -9 -56 -14 -100 -6 -44 -15 -100 -20 -125 -6
-25 -13 -74 -16 -110 -4 -36 -8 -80 -10 -98 -2 -18 -5 -35 -7 -37 -9 -9 -238
231 -238 250 0 4 -18 27 -40 51 -22 24 -46 55 -52 69 -6 14 -15 25 -20 25 -4
0 -8 5 -8 10 0 12 -41 73 -52 78 -5 2 -8 10 -8 17 0 7 -14 25 -31 39 -29 25
-31 25 -62 10 -18 -9 -33 -17 -34 -18 -3 -3 -23 -168 -24 -206 -1 -19 -5 -48
-10 -65 -5 -16 -9 -46 -10 -65 -1 -19 -5 -48 -10 -65 -11 -39 -20 -82 -24
-120 -5 -45 -16 -99 -21 -104 -10 -11 -106 45 -117 68 -7 14 -19 37 -27 51 -7
14 -17 33 -22 43 -14 29 -69 189 -75 217 -2 14 -8 34 -13 45 -5 11 -16 52 -25
90 -47 188 -45 177 -28 171 20 -8 205 -17 343 -17 180 1 399 16 463 32 21 6
55 12 75 13 62 6 164 26 212 41 25 8 70 19 100 25 66 12 120 43 120 67 0 39
-13 62 -40 72 -16 5 -30 7 -33 5 -5 -5 -143 -45 -167 -49 -8 -1 -26 -5 -40 -9
-14 -3 -41 -9 -60 -11 -19 -3 -44 -8 -55 -10 -30 -6 -83 -14 -145 -20 -30 -4
-62 -8 -70 -11 -34 -9 -197 -21 -355 -25 -25 -1 -294 12 -325 16 -19 2 -45 4
-57 4 -18 1 -23 7 -23 27 0 29 -58 94 -84 94 -17 0 -66 -49 -66 -66 0 -15 -24
-24 -50 -19 -11 3 -30 7 -42 10 -13 3 -36 8 -53 10 -16 3 -37 8 -45 10 -8 2
-26 6 -40 9 -47 9 -65 14 -95 26 -33 13 -53 18 -105 27 -19 3 -51 14 -70 23
-19 10 -66 27 -105 39 -73 23 -112 41 -305 135 -124 61 -180 92 -249 138 -54
36 -89 43 -118 22z m343 -288 c27 -13 67 -31 89 -41 22 -9 61 -28 86 -41 26
-13 55 -24 66 -24 10 0 23 -4 28 -9 13 -11 312 -107 365 -116 14 -3 52 -11 85
-20 34 -8 73 -16 88 -17 15 -1 27 -6 27 -10 0 -4 -34 -42 -75 -85 -41 -43 -74
-84 -75 -90 0 -7 -4 -13 -8 -13 -5 0 -25 -15 -44 -34 l-35 -35 -49 34 c-27 19
-65 45 -84 58 -19 13 -41 32 -49 41 -7 9 -18 16 -24 16 -5 0 -29 17 -52 38
-23 20 -56 48 -72 62 -67 54 -110 92 -168 145 -32 30 -63 55 -67 55 -4 0 -8 4
-8 9 0 6 -21 30 -47 55 -54 51 -49 57 23 22z m1002 -329 c0 -12 7 -42 17 -67
9 -25 19 -60 21 -79 3 -19 9 -42 15 -53 5 -10 8 -22 6 -26 -3 -4 0 -18 6 -32
6 -14 16 -47 22 -75 7 -27 26 -87 43 -132 l30 -83 -27 18 c-46 30 -66 42 -81
49 -21 9 -244 136 -250 143 -3 3 -25 16 -50 29 -25 13 -47 26 -49 28 -3 2 13
21 35 42 63 61 197 211 217 242 20 31 44 29 45 -4z m692 -326 c0 -4 9 -16 20
-26 11 -10 20 -24 20 -32 0 -7 7 -16 15 -19 8 -4 15 -12 15 -19 0 -7 12 -24
28 -37 15 -12 38 -39 52 -58 30 -44 73 -84 178 -166 86 -67 125 -79 155 -50
13 13 33 102 42 191 18 157 27 189 39 139 4 -16 27 -71 52 -122 24 -51 44 -97
44 -102 0 -6 4 -10 9 -10 5 0 14 -12 21 -27 20 -48 54 -108 81 -143 15 -19 34
-50 44 -69 9 -19 26 -44 37 -55 11 -12 32 -37 47 -56 14 -19 36 -46 49 -60 12
-14 22 -28 22 -32 0 -5 7 -16 15 -25 43 -49 66 -83 56 -83 -7 0 -28 7 -49 16
-45 19 -166 62 -207 73 -16 5 -59 21 -95 36 -36 15 -74 29 -86 30 -11 2 -46
15 -78 29 -31 14 -62 26 -69 26 -7 0 -30 9 -52 20 -22 11 -46 20 -55 20 -9 0
-21 5 -26 10 -6 6 -21 13 -35 15 -13 3 -35 10 -49 16 -14 6 -34 15 -45 19 -11
4 -45 19 -75 33 -105 50 -175 79 -198 83 -40 8 -49 24 -41 69 4 22 10 60 14
85 3 25 14 88 25 140 10 52 21 118 25 146 l7 52 24 -25 c13 -13 24 -28 24 -32z"/>
</g>
</svg>
